<svg xmlns="http://www.w3.org/2000/svg" viewBox="0 0 1000 760" role="img">
  <defs>
    <linearGradient id="bg" x1="0" y1="0" x2="1" y2="1">
      <stop offset="0" stop-color="#061016"/>
      <stop offset=".56" stop-color="#111827"/>
      <stop offset="1" stop-color="#050505"/>
    </linearGradient>
  </defs>
  <rect width="1000" height="760" fill="url(#bg)"/>
  <g fill="#111521">
    <rect x="80" y="310" width="110" height="300"/>
    <rect x="230" y="170" width="130" height="440"/>
    <rect x="410" y="240" width="106" height="370"/>
    <rect x="560" y="105" width="145" height="505"/>
    <rect x="750" y="270" width="120" height="340"/>
  </g>
  <g fill="#d8ad45" opacity=".7">
    <rect x="110" y="350" width="20" height="18"/>
    <rect x="270" y="222" width="22" height="18"/>
    <rect x="604" y="152" width="24" height="18"/>
    <rect x="788" y="322" width="22" height="18"/>
  </g>
  <g fill="#2d83ff" opacity=".55">
    <rect x="144" y="420" width="20" height="18"/>
    <rect x="310" y="330" width="22" height="18"/>
    <rect x="454" y="300" width="22" height="18"/>
    <rect x="650" y="265" width="24" height="18"/>
    <rect x="828" y="410" width="22" height="18"/>
  </g>
  <path d="M0 610 C250 560 480 635 705 585 C840 555 930 572 1000 588 L1000 760 L0 760 Z" fill="#051019"/>
</svg>
